<?xml version="1.0" encoding="UTF-8"?>
<svg width="20px" height="20px" viewBox="0 0 20 20" version="1.1" xmlns="http://www.w3.org/2000/svg" xmlns:xlink="http://www.w3.org/1999/xlink">
    <title>input/search/ena@2x</title>
    <defs>
        <path d="M8.81832219,1.5 C12.8601199,1.5 16.1366444,4.77652445 16.1366444,8.81832219 C16.1366444,10.1303519 15.7913801,11.3617409 15.1867525,12.4265882 L18.5,15.7400879 L15.7400879,18.5 L12.4265882,15.1867525 C11.3617409,15.7913801 10.1303519,16.1366444 8.81832219,16.1366444 C4.77652445,16.1366444 1.5,12.8601199 1.5,8.81832219 C1.5,4.77652445 4.77652445,1.5 8.81832219,1.5 Z M8.81832219,3.45155259 C5.85433718,3.45155259 3.45155259,5.85433718 3.45155259,8.81832219 C3.45155259,11.7823072 5.85433718,14.1850918 8.81832219,14.1850918 C11.7823072,14.1850918 14.1850918,11.7823072 14.1850918,8.81832219 C14.1850918,5.85433718 11.7823072,3.45155259 8.81832219,3.45155259 Z" id="path-1"></path>
    </defs>
    <g id="W55-Starship收入报表" stroke="none" stroke-width="1" fill="none" fill-rule="evenodd">
        <g id="搜索车头ID" transform="translate(-432.000000, -402.000000)">
            <g id="编组-18" transform="translate(424.000000, 372.000000)">
                <g id="input/search/ena" transform="translate(0.000000, 24.000000)">
                    <g id="icon/basic/search" transform="translate(8.000000, 6.000000)">
                        <mask id="mask-2" fill="white">
                            <use xlink:href="#path-1"></use>
                        </mask>
                        <use id="Icon" fill="#CCCCCC" xlink:href="#path-1"></use>
                    </g>
                </g>
            </g>
        </g>
    </g>
</svg>